# xmcd CD database file
#
# Track frame offsets:
#	150
#	10057
#	21580
#	32960
#	47217
#	59050
#	71222
#	87502
#	95242
#	112015
#	129160
#	143300
#	164675
#	177570
#	195565
#	210555
#
# Disc length: 3025 seconds
#
# Revision: 0
# Processed by: cddbd v1.5PL3 Copyright (c) Steve Scherf et al.
# Submitted via: CDex 1.40Release
#
DISCID=f30bcf10
DTITLE=Pete Madsen - Good Time Music - Blues and Rags
DYEAR=2003
DGENRE=Blues
TTITLE0=Ironweed Rag
TTITLE1=C Rag
TTITLE2=You can Shake it, You can Break it...Mamma, don't let it Fall
TTITLE3=Goin Down to Richmond
TTITLE4=Cannonball Rag
TTITLE5=When You got a Good Friend
TTITLE6=Moniv Day Blues
TTITLE7=Saturday Night Shuffle
TTITLE8=Blues for a Young Man
TTITLE9=Frankie
TTITLE10=Maple Leaf Rag
TTITLE11=That Evening Sun Go Down
TTITLE12=One Meatball
TTITLE13=Le Petit Nicolas
TTITLE14=Stingee Brim
TTITLE15=Steel Guitar Rag
EXTD=YEAR: 2003 ID3G: 0
EXTT0=
EXTT1=
EXTT2=
EXTT3=
EXTT4=
EXTT5=
EXTT6=
EXTT7=
EXTT8=
EXTT9=
EXTT10=
EXTT11=
EXTT12=
EXTT13=
EXTT14=
EXTT15=
PLAYORDER=
